<svg xmlns="http://www.w3.org/2000/svg" viewBox="0 0 480 300">
<!-- 施設の外観のイラスト（通所施設）。平屋に大きな窓と送迎車の乗降口。菜の花は窓の明かりのみに用いる。 -->
<rect width="480" height="300" fill="#fbfaf4"/>
<path d="M30 252h420" fill="none" stroke="#1f2a22" stroke-width="2.5" stroke-linecap="round" stroke-linejoin="round"/>
<path d="M70 252V150h250v102" fill="#eef3e4" stroke="#1f2a22" stroke-width="2.5" stroke-linecap="round" stroke-linejoin="round"/>
<path d="M56 150l139-62 139 62z" fill="#2f4a27" stroke="#1f2a22" stroke-width="2.5" stroke-linecap="round" stroke-linejoin="round"/>
<path d="M320 252V178h96v74" fill="#eef3e4" stroke="#1f2a22" stroke-width="2.5" stroke-linecap="round" stroke-linejoin="round"/>
<path d="M310 178h116v-16H310z" fill="#2f4a27" stroke="#1f2a22" stroke-width="2.5" stroke-linecap="round" stroke-linejoin="round"/>
<rect x="96" y="172" width="120" height="44" fill="#efc64a" stroke="#1f2a22" stroke-width="2.5" stroke-linecap="round" stroke-linejoin="round"/>
<path d="M136 172v44M176 172v44" fill="none" stroke="#1f2a22" stroke-width="2.5" stroke-linecap="round" stroke-linejoin="round"/>
<path d="M240 252v-62h52v62" fill="#ffffff" stroke="#1f2a22" stroke-width="2.5" stroke-linecap="round" stroke-linejoin="round"/>
<path d="M266 190v62" fill="none" stroke="#1f2a22" stroke-width="2.5" stroke-linecap="round" stroke-linejoin="round"/>
<rect x="342" y="196" width="52" height="30" fill="#ffffff" stroke="#1f2a22" stroke-width="2.5" stroke-linecap="round" stroke-linejoin="round"/>
<path d="M326 232h84" fill="none" stroke="#1f2a22" stroke-width="2.5" stroke-linecap="round" stroke-linejoin="round"/>
<path d="M44 252c0-16 9-26 20-26s20 10 20 26M420 252c0-16 9-26 20-26s20 10 20 26" fill="#3a6630" stroke="#1f2a22" stroke-width="2.5" stroke-linecap="round" stroke-linejoin="round"/>
</svg>
