<svg xmlns="http://www.w3.org/2000/svg" viewBox="0 0 480 300">
<!-- 施設の外観のイラスト（グループホーム）。2つのユニットを持つ2階建ての家。菜の花は窓の明かりのみに用いる。 -->
<rect width="480" height="300" fill="#fbfaf4"/>
<path d="M30 252h420" fill="none" stroke="#1f2a22" stroke-width="2.5" stroke-linecap="round" stroke-linejoin="round"/>
<path d="M100 252V130h140v122" fill="#eef3e4" stroke="#1f2a22" stroke-width="2.5" stroke-linecap="round" stroke-linejoin="round"/>
<path d="M84 136l86-66 86 66z" fill="#2f4a27" stroke="#1f2a22" stroke-width="2.5" stroke-linecap="round" stroke-linejoin="round"/>
<path d="M240 252V150h140v102" fill="#eef3e4" stroke="#1f2a22" stroke-width="2.5" stroke-linecap="round" stroke-linejoin="round"/>
<path d="M226 156l84-56 84 56z" fill="#2f4a27" stroke="#1f2a22" stroke-width="2.5" stroke-linecap="round" stroke-linejoin="round"/>
<g fill="#ffffff" stroke="#1f2a22" stroke-width="2.5" stroke-linecap="round" stroke-linejoin="round">
<rect x="124" y="146" width="36" height="30"/><rect x="264" y="166" width="36" height="30"/><rect x="320" y="166" width="36" height="30"/>
</g>
<g fill="#efc64a" stroke="#1f2a22" stroke-width="2.5" stroke-linecap="round" stroke-linejoin="round">
<rect x="180" y="146" width="36" height="30"/><rect x="124" y="196" width="36" height="30"/>
</g>
<path d="M184 252v-52h36v52" fill="#ffffff" stroke="#1f2a22" stroke-width="2.5" stroke-linecap="round" stroke-linejoin="round"/>
<path d="M290 252v-36h40v36" fill="#ffffff" stroke="#1f2a22" stroke-width="2.5" stroke-linecap="round" stroke-linejoin="round"/>
<path d="M310 216v36" fill="none" stroke="#1f2a22" stroke-width="2.5" stroke-linecap="round" stroke-linejoin="round"/>
<path d="M50 252c0-16 9-26 20-26s20 10 20 26M396 252c0-16 9-26 20-26s20 10 20 26" fill="#3a6630" stroke="#1f2a22" stroke-width="2.5" stroke-linecap="round" stroke-linejoin="round"/>
</svg>
